<svg id="Camada_1" data-name="Camada 1" xmlns="http://www.w3.org/2000/svg" viewBox="0 0 900 1440"><defs><style>.cls-1{fill:#28281e;}.cls-2{fill:#ffe433;}</style></defs><title>Prancheta 3</title><rect class="cls-1" width="900" height="1440"/><path class="cls-2" d="M450,675.2h-1.6a78.24,78.24,0,0,1-72.74-54.57A18.56,18.56,0,0,1,411,609.32a40.85,40.85,0,0,0,78,0,18.56,18.56,0,0,1,35.36,11.32C514,653,483.57,675.2,450,675.2Z"/><path class="cls-2" d="M453.07,341.86C315.49,341.86,222.75,447.5,222.75,590c0,133.89,82.3,240.76,223.57,240.76,134.5,0,230.93-92.74,230.93-249.36C677.25,448.73,595.57,341.86,453.07,341.86Zm-3.68,414c-81.69,0-130.21-74.32-129.6-167.67,0-93.36,46.07-171.37,130.82-171.37s129.6,79.85,129.6,167.68C580.21,679.67,534.76,755.83,449.39,755.83Z"/><path class="cls-2" d="M337.92,903.29V983h-6.48V903.29H306v-5.76h57.48v5.76Z"/><path class="cls-2" d="M417.12,983V947.09q0-8.39-4.08-12.84c-2.72-3-6.68-4.44-11.88-4.44s-9.22,1.5-12.06,4.5-4.26,7.26-4.26,12.78V983h-6.12V897.53h6.12V932q6.48-7.56,17-7.56,10,0,15.66,5.76t5.7,15.84v37Z"/><path class="cls-2" d="M448.56,955.37q0,11.1,4.8,17t14,5.91a20.85,20.85,0,0,0,8.7-1.62,25.48,25.48,0,0,0,7.26-5.34l4.56,3.6a39.88,39.88,0,0,1-4.38,3.82,24.73,24.73,0,0,1-4.68,2.77,22.48,22.48,0,0,1-5.34,1.65,36.35,36.35,0,0,1-6.48.52q-12,0-18.3-7.56t-6.3-22.08q0-14,6.12-21.84t17-7.8q10.92,0,17,7.44t6.12,20.76v2.76Zm33.84-8.46a21.66,21.66,0,0,0-.36-2.64q-.24-1.12-.6-2.28t-.84-2.46a15.43,15.43,0,0,0-5.94-7.14,17.2,17.2,0,0,0-18.12,0,15.43,15.43,0,0,0-5.94,7.14,16.34,16.34,0,0,0-.9,2.46q-.3,1.15-.54,2.28a21.66,21.66,0,0,0-.36,2.64q-.12,1.51-.24,3.54h34.08Q482.52,948.43,482.4,946.91Z"/><path class="cls-2" d="M523.92,983c-4.56,0-8-1.41-10.38-4.26A16.38,16.38,0,0,1,510,967.85V929.69h-7.92v-4.56H510V906.65h6.12v18.48H529.2v4.56H516.12V968c0,3,.72,5.4,2.16,7.08s3.68,2.52,6.72,2.52h4.2V983Z"/><path class="cls-2" d="M580.32,983v-5.76a20.49,20.49,0,0,1-7.62,5.1,30.54,30.54,0,0,1-10,1.38,36.38,36.38,0,0,1-10.38-1.2,15.2,15.2,0,0,1-6.66-4.08,13.29,13.29,0,0,1-3.12-5,18.24,18.24,0,0,1-1.08-6.24c0-5.28,1.78-9.37,5.34-12.3s8.5-4.38,14.82-4.38h18.72V944c0-4.63-1.24-8.16-3.72-10.56s-6.68-3.6-12.6-3.6a23,23,0,0,0-9.66,1.68,16.42,16.42,0,0,0-6.3,5.64l-4.44-3.84a19.32,19.32,0,0,1,8.52-7A33.29,33.29,0,0,1,564,924.41q11.52,0,17,4.92t5.46,14V983Zm0-27.6h-18q-14.76,0-14.76,11.64c0,3.84,1.2,6.69,3.6,8.52s6.24,2.76,11.52,2.76a39.4,39.4,0,0,0,7.62-.72,13.43,13.43,0,0,0,6.78-3.72q3.24-3,3.24-11Z"/></svg>